<svg width="48" height="48" viewBox="0 0 48 48" fill="none" xmlns="http://www.w3.org/2000/svg">
<path id="Vector" d="M13.3333 0C5.98133 0 0 5.98133 0 13.3333V34.6667C0 42.0187 5.98133 48 13.3333 48H34.6667C42.0187 48 48 42.0187 48 34.6667V13.3333C48 5.98133 42.0187 0 34.6667 0H13.3333ZM13.3333 5.33333H34.6667C39.0773 5.33333 42.6667 8.92267 42.6667 13.3333V34.6667C42.6667 39.0773 39.0773 42.6667 34.6667 42.6667H13.3333C8.92267 42.6667 5.33333 39.0773 5.33333 34.6667V13.3333C5.33333 8.92267 8.92267 5.33333 13.3333 5.33333ZM37.3333 8C36.6261 8 35.9478 8.28095 35.4477 8.78105C34.9476 9.28115 34.6667 9.95942 34.6667 10.6667C34.6667 11.3739 34.9476 12.0522 35.4477 12.5523C35.9478 13.0524 36.6261 13.3333 37.3333 13.3333C38.0406 13.3333 38.7189 13.0524 39.219 12.5523C39.7191 12.0522 40 11.3739 40 10.6667C40 9.95942 39.7191 9.28115 39.219 8.78105C38.7189 8.28095 38.0406 8 37.3333 8ZM24 10.6667C16.648 10.6667 10.6667 16.648 10.6667 24C10.6667 31.352 16.648 37.3333 24 37.3333C31.352 37.3333 37.3333 31.352 37.3333 24C37.3333 16.648 31.352 10.6667 24 10.6667ZM24 16C28.4107 16 32 19.5893 32 24C32 28.4107 28.4107 32 24 32C19.5893 32 16 28.4107 16 24C16 19.5893 19.5893 16 24 16Z" fill="white"/>
</svg>
