<svg width="35" height="36" viewBox="0 0 35 36" fill="none" xmlns="http://www.w3.org/2000/svg">
<g id="&#240;&#159;&#166;&#134; icon &#34;Shopping bag&#34;">
<path id="Vector" d="M34.4014 14.3158C34.286 14.1562 34.1426 14.028 33.9813 13.9401C33.82 13.8522 33.6444 13.8067 33.4668 13.8068H26.0881V7.98861C26.0881 6.83131 25.6995 5.72141 25.0076 4.90307C24.3157 4.08474 23.3773 3.625 22.3988 3.625H15.0202C14.0417 3.625 13.1033 4.08474 12.4114 4.90307C11.7195 5.72141 11.3308 6.83131 11.3308 7.98861V13.8068H3.9522C3.77394 13.8044 3.59737 13.8479 3.43472 13.9342C3.27208 14.0205 3.12725 14.1477 3.01028 14.3068C2.8933 14.4659 2.80697 14.6532 2.75726 14.8557C2.70756 15.0582 2.69567 15.271 2.72242 15.4795L5.0344 33.1521C5.12334 33.8458 5.42124 34.4781 5.87322 34.9325C6.3252 35.3869 6.90079 35.6327 7.49395 35.6248H29.9496C30.5428 35.6327 31.1184 35.3869 31.5704 34.9325C32.0223 34.4781 32.3202 33.8458 32.4092 33.1521L34.6966 15.4795C34.7212 15.2718 34.7076 15.0603 34.6566 14.8595C34.6057 14.6586 34.5186 14.4732 34.4014 14.3158ZM13.7904 7.98861C13.7904 7.60284 13.92 7.23288 14.1506 6.9601C14.3812 6.68732 14.694 6.53407 15.0202 6.53407H22.3988C22.725 6.53407 23.0378 6.68732 23.2684 6.9601C23.499 7.23288 23.6286 7.60284 23.6286 7.98861V13.8068H13.7904V7.98861ZM29.9496 32.7157H7.46935L5.39103 16.7158H32.028L29.9496 32.7157Z" fill="white"/>
</g>
</svg>
