<svg width="48" height="48" viewBox="0 0 48 48" fill="none" xmlns="http://www.w3.org/2000/svg">
<g id="Group 1">
<g id="Group 2">
<g id="Group 3">
<g id="Group 4">
<path id="Vector" d="M23.9997 10.2859C22.3044 10.2859 20.6472 10.7886 19.2376 11.7304C17.8281 12.6723 16.7294 14.0109 16.0807 15.5772C15.4319 17.1434 15.2622 18.8668 15.5929 20.5295C15.9237 22.1922 16.74 23.7195 17.9387 24.9182C19.1375 26.117 20.6648 26.9333 22.3275 27.264C23.9901 27.5948 25.7136 27.425 27.2798 26.7763C28.846 26.1275 30.1847 25.0289 31.1265 23.6193C32.0684 22.2098 32.5711 20.5526 32.5711 18.8573C32.5711 16.584 31.668 14.4039 30.0606 12.7964C28.4531 11.1889 26.2729 10.2859 23.9997 10.2859ZM23.9997 24.0002C22.9825 24.0002 21.9882 23.6985 21.1424 23.1334C20.2967 22.5683 19.6375 21.7651 19.2483 20.8254C18.859 19.8857 18.7572 18.8516 18.9556 17.854C19.1541 16.8564 19.6439 15.94 20.3631 15.2208C21.0823 14.5015 21.9987 14.0117 22.9963 13.8133C23.9939 13.6148 25.028 13.7167 25.9677 14.1059C26.9075 14.4952 27.7107 15.1544 28.2758 16.0001C28.8409 16.8458 29.1425 17.8402 29.1425 18.8573C29.141 20.2208 28.5986 21.528 27.6345 22.4922C26.6704 23.4563 25.3632 23.9986 23.9997 24.0002Z" fill="white"/>
<path id="Vector_2" d="M24 0C19.2533 0 14.6131 1.40758 10.6663 4.04473C6.71954 6.68188 3.6434 10.4302 1.8269 14.8156C0.0103988 19.201 -0.464881 24.0266 0.461164 28.6822C1.38721 33.3377 3.67299 37.6141 7.02945 40.9706C10.3859 44.327 14.6623 46.6128 19.3178 47.5388C23.9734 48.4649 28.799 47.9896 33.1844 46.1731C37.5698 44.3566 41.3181 41.2805 43.9553 37.3337C46.5924 33.3869 48 28.7467 48 24C47.9928 17.637 45.462 11.5367 40.9626 7.03735C36.4633 2.53803 30.363 0.00716896 24 0ZM13.7143 41.7883V39.4286C13.7158 38.0651 14.2581 36.7578 15.2223 35.7937C16.1864 34.8295 17.4936 34.2872 18.8572 34.2857H29.1429C30.5064 34.2872 31.8136 34.8295 32.7778 35.7937C33.7419 36.7578 34.2842 38.0651 34.2857 39.4286V41.7883C31.1643 43.6109 27.6146 44.5714 24 44.5714C20.3854 44.5714 16.8357 43.6109 13.7143 41.7883ZM37.7014 39.3014C37.6674 37.0526 36.7511 34.9073 35.1502 33.3278C33.5493 31.7483 31.3918 30.861 29.1429 30.8571H18.8572C16.6082 30.861 14.4507 31.7483 12.8498 33.3278C11.2489 34.9073 10.3327 37.0526 10.2986 39.3014C7.18983 36.5255 4.99755 32.8709 4.01201 28.8214C3.02648 24.7719 3.29418 20.5185 4.77968 16.6246C6.26517 12.7306 8.89838 9.37966 12.3306 7.01548C15.7629 4.65131 19.8323 3.38541 24 3.38541C28.1677 3.38541 32.2371 4.65131 35.6694 7.01548C39.1016 9.37966 41.7348 12.7306 43.2203 16.6246C44.7058 20.5185 44.9735 24.7719 43.988 28.8214C43.0025 32.8709 40.8102 36.5255 37.7014 39.3014Z" fill="white"/>
</g>
</g>
</g>
</g>
</svg>
